<svg version="1.1" id="Layer_1" xmlns="http://www.w3.org/2000/svg" xmlns:xlink="http://www.w3.org/1999/xlink" x="0px" y="0px"
	 width="100%" viewBox="0 0 1024 1024" enable-background="new 0 0 1024 1024" xml:space="preserve">
<path fill="#000000" opacity="1.000000" stroke="none" 
	d="
M80.292450,592.566101 
	C73.033546,578.446655 72.455360,564.001160 76.390823,549.154907 
	C80.459862,533.804810 87.980682,520.145264 96.716103,507.050262 
	C97.965309,505.177673 99.848267,503.548950 99.846748,500.721039 
	C96.136475,499.875763 91.889542,502.930664 88.125572,498.878174 
	C92.340897,494.705780 97.099953,491.037750 100.463928,485.357086 
	C97.056885,484.992798 93.863846,487.637543 90.963058,485.554352 
	C90.963058,485.016449 90.826271,484.522217 90.982491,484.398804 
	C107.114265,471.652710 118.127342,454.860321 127.915398,437.195343 
	C132.802917,428.374603 139.201340,420.797241 145.976364,413.331787 
	C143.831360,411.284546 141.145981,414.178467 138.699249,411.365997 
	C143.019287,404.354736 150.021729,399.459412 156.198990,392.947296 
	C152.057281,392.495575 148.311966,394.200470 144.080017,392.499634 
	C149.774963,385.316559 158.028885,384.687622 165.437744,382.442078 
	C165.449799,379.138641 163.624130,378.504059 161.246216,378.311249 
	C158.999908,378.129150 155.878235,378.744141 155.122803,376.160706 
	C154.223587,373.085541 157.799881,372.475128 159.538757,370.882141 
	C159.780396,370.660736 159.968384,370.380737 160.365341,369.909119 
	C157.319519,362.338226 154.028824,354.716797 151.164261,346.938477 
	C140.595291,318.239960 134.434158,288.465851 129.585327,258.353302 
	C126.897186,241.659241 126.248444,224.889099 126.752747,208.057693 
	C127.198303,193.186630 129.103027,178.551224 135.249222,164.750717 
	C137.445862,159.818451 140.925278,155.746628 143.761154,151.246674 
	C144.904114,149.433014 146.916443,149.112106 148.971878,148.760056 
	C196.463898,140.625412 242.034683,149.697006 286.940826,164.273270 
	C313.657501,172.945358 339.292938,184.055237 362.734131,199.763092 
	C364.625793,201.030670 366.110657,201.159225 368.209900,200.235794 
	C398.157684,187.062027 429.645050,179.749496 461.975433,175.519150 
	C483.816498,172.661285 505.721283,171.092133 527.729248,171.819458 
	C572.221741,173.289902 615.848450,179.862656 657.932190,194.949936 
	C663.250305,196.856506 668.583801,201.177292 673.607056,200.757050 
	C678.610291,200.338455 683.131409,195.180542 688.036926,192.406738 
	C728.504822,169.524399 771.844055,155.079529 817.843994,148.593811 
	C838.683289,145.655579 859.568848,144.168777 880.520813,147.621506 
	C883.633728,148.134491 886.750732,148.657471 889.885376,148.993881 
	C892.273254,149.250153 893.737183,150.581268 895.127197,152.381348 
	C904.269470,164.220840 908.459778,177.892410 910.373230,192.492462 
	C914.724670,225.695099 909.844299,258.207794 902.975403,290.530182 
	C897.394897,316.789642 890.189148,342.579376 878.553101,366.919800 
	C877.510681,369.100372 877.540344,370.573547 879.815979,371.863159 
	C881.380310,372.749603 882.953796,373.861908 882.874023,376.194580 
	C880.413696,380.197205 873.448303,375.790375 871.774353,382.377777 
	C879.358521,384.578186 887.627014,385.647797 893.427246,393.102051 
	C888.867981,393.986359 885.169800,392.858704 880.503296,392.723969 
	C886.452576,399.445984 893.252625,404.500122 898.048889,411.545593 
	C895.342712,414.200165 892.259094,412.388885 888.700684,412.677887 
	C899.419861,423.253693 903.943054,436.486176 910.316101,448.869446 
	C916.651367,461.179321 924.789795,473.234375 936.161194,482.204407 
	C937.268677,483.077972 938.966614,483.469757 939.150208,485.483398 
	C936.448608,487.526886 933.824219,484.878693 930.815979,485.320038 
	C932.965149,491.105713 937.956848,494.599701 941.857483,499.171539 
	C937.628113,502.357971 933.620667,500.293945 929.339294,499.729218 
	C929.420715,501.588928 930.771057,502.656647 931.609863,503.927734 
	C941.557251,519.001038 950.670837,534.472900 954.735840,552.349182 
	C957.659302,565.205627 956.773987,577.807251 952.033203,590.121216 
	C951.735413,590.894714 951.371277,591.655212 950.935120,592.357910 
	C950.689880,592.752869 950.233826,593.016846 949.849976,593.360229 
	C947.707520,592.849487 947.733459,590.904724 947.292725,589.456055 
	C943.675720,577.566895 938.397461,566.510803 931.357422,556.249817 
	C929.917297,554.150940 926.576721,551.274292 929.544617,549.002869 
	C932.035767,547.096313 934.679871,550.335327 936.665283,552.212952 
	C943.246460,558.437134 947.265320,566.191406 949.912537,574.740051 
	C944.678711,538.705994 926.562744,508.737335 904.700684,479.675049 
	C913.900757,480.641205 919.055420,487.884857 925.625610,490.683624 
	C915.595886,472.470215 901.035156,456.250275 890.736267,437.237427 
	C893.664246,435.258240 894.803650,438.283508 897.091614,438.017944 
	C888.690674,425.660492 877.599304,415.658844 869.518738,402.999298 
	C873.113831,400.477051 876.358948,402.341309 880.552612,402.616882 
	C875.245667,397.863617 870.581604,393.926239 866.195068,389.700714 
	C859.679810,383.424774 859.454529,382.912598 864.248962,375.426819 
	C874.160706,359.951080 877.570496,342.149963 882.559753,324.962097 
	C890.461121,297.741974 895.371033,269.847961 898.375488,241.712616 
	C900.728394,219.678680 901.515930,197.483170 895.687256,175.704132 
	C890.565308,156.566040 889.274841,155.524948 869.683228,155.201996 
	C827.970886,154.514404 788.075562,163.597961 749.193726,177.954422 
	C729.010742,185.406662 709.444397,194.269043 690.248840,203.960892 
	C687.760254,205.217361 685.107178,206.264709 682.898804,208.472549 
	C684.980896,211.811417 689.545349,212.355438 691.308472,215.956818 
	C689.702576,217.596252 688.393677,216.181778 687.163330,215.792923 
	C663.041687,208.169510 639.229309,199.495575 614.499756,193.924393 
	C590.123047,188.432693 565.489746,184.799438 540.504822,183.204788 
	C483.904358,179.592285 429.448669,189.604355 376.205963,207.988937 
	C368.338318,210.705597 360.386536,213.178055 352.480469,215.784088 
	C351.224792,216.198013 350.000946,216.671463 348.306824,216.190720 
	C349.760071,212.325363 354.173553,211.727707 356.048096,208.568024 
	C354.520050,206.499557 352.204803,205.834381 350.199615,204.799286 
	C310.041351,184.069565 268.254639,167.950409 223.591827,159.859116 
	C200.213440,155.623779 176.732651,154.126114 153.026489,155.912933 
	C150.321991,156.116760 149.811249,157.896820 148.944992,159.598206 
	C142.713242,171.837540 140.069321,184.990860 139.334396,198.571640 
	C137.132996,239.251617 144.411743,278.783936 153.993668,318.022552 
	C157.233994,331.291901 161.313477,344.322296 165.536621,357.303711 
	C167.648956,363.796753 170.151978,370.114441 173.705887,376.026337 
	C177.923004,383.041534 177.889542,383.282013 171.795609,388.936798 
	C167.068497,393.323212 161.960709,397.299377 156.642426,401.777649 
	C159.735138,402.624420 162.671524,400.709198 165.739273,403.248505 
	C157.890213,417.061493 145.100250,426.614624 134.973694,438.598541 
	C137.746262,438.331543 138.887589,435.332275 142.607483,435.036499 
	C131.890457,455.038025 115.564697,470.421753 105.811882,489.805939 
	C112.202003,487.289337 116.877991,480.129944 125.270813,479.643921 
	C105.549065,507.656891 87.425438,535.833801 81.137711,569.790955 
	C84.321373,565.040161 86.476547,559.719421 90.339371,555.432068 
	C92.811989,552.687805 95.393860,550.119568 98.823776,548.583618 
	C99.763145,548.162964 100.774345,547.866943 101.656479,548.585693 
	C102.722771,549.454468 102.698662,550.695007 102.156715,551.781860 
	C101.416626,553.266052 100.585983,554.739441 99.576126,556.049438 
	C91.845627,566.077026 86.335670,577.182373 83.057991,589.416626 
	C82.702301,590.744202 82.610352,592.513489 80.292450,592.566101 
z"/>
<path fill="#000000" opacity="1.000000" stroke="none" 
	d="
M439.371216,498.277039 
	C439.967682,500.639343 441.499207,502.673645 438.670532,504.283508 
	C428.406494,510.125092 419.054199,517.538574 408.037292,522.075073 
	C406.905182,522.541321 405.730072,523.593445 404.283539,522.531433 
	C404.954529,520.534790 406.819550,520.012817 408.370087,519.175476 
	C413.950104,516.161926 419.097443,512.488342 424.390991,509.023407 
	C430.392822,505.094818 433.176025,499.777222 433.477081,492.828186 
	C433.584076,490.359375 433.897797,487.899536 433.886108,485.309479 
	C431.867126,489.753204 429.166290,493.751221 426.193024,497.737915 
	C426.970032,491.208954 431.501709,484.828735 426.898743,477.950012 
	C423.744934,478.837646 422.997375,481.716034 421.888367,483.859619 
	C413.747742,499.594421 401.533691,510.372955 384.482056,515.550354 
	C382.819214,516.055176 380.477600,516.460571 380.610504,518.786682 
	C380.750305,521.233398 383.273102,521.022705 384.908264,521.354492 
	C393.439911,523.085938 401.637115,525.767090 409.498260,529.495422 
	C410.946259,530.182129 412.643555,530.554504 413.618164,533.195496 
	C378.914093,525.557617 344.297607,522.155640 309.156799,519.799622 
	C310.314362,517.359558 308.820923,516.301575 306.524170,515.345825 
	C292.453461,509.490204 282.011078,499.555542 274.550262,486.383240 
	C270.607880,479.422943 265.481293,473.353851 259.725281,467.055573 
	C265.218811,463.869019 265.860138,458.567017 267.085388,453.347931 
	C270.372284,439.346771 274.867096,425.744324 283.108368,413.757782 
	C298.567993,391.272491 320.489563,379.541565 347.217651,377.005096 
	C379.822540,373.910858 406.351410,385.563843 425.880798,412.048523 
	C435.084747,424.530457 439.328949,439.023773 441.302063,454.267029 
	C442.983398,467.256470 442.873749,480.141815 439.677887,492.926178 
	C439.281860,494.510376 439.437836,496.232574 439.371216,498.277039 
M293.560211,424.049438 
	C286.544647,434.474579 283.234528,446.259064 280.408630,458.343353 
	C276.946625,473.147980 281.248962,485.587524 290.700684,496.746735 
	C296.701141,503.831207 304.045105,509.194580 312.229126,513.572998 
	C315.163513,515.142883 317.966217,516.162537 321.217041,515.638184 
	C326.199310,514.834473 331.153656,515.204163 336.142639,515.605835 
	C341.565582,516.042542 347.014099,516.160767 353.603912,516.472351 
	C321.222504,502.117676 306.630707,478.606537 311.591278,444.155487 
	C308.759247,443.644684 306.736572,444.249329 304.720093,445.142181 
	C301.029510,446.776245 299.747040,444.947693 299.908630,441.523773 
	C299.978241,440.048462 300.317444,438.543396 300.786469,437.135925 
	C306.073120,421.272369 315.311462,408.409485 329.596741,399.407471 
	C331.326508,398.317413 333.036255,397.195526 334.755249,396.088379 
	C317.394562,399.767975 304.097809,409.312744 293.560211,424.049438 
M337.010010,448.847748 
	C335.900879,450.984680 337.938934,451.783295 338.867462,452.963348 
	C340.178162,454.629120 340.944946,456.148743 340.129974,458.405701 
	C337.398560,465.969971 339.143707,472.995575 344.097229,478.892731 
	C346.948822,482.287598 350.664703,484.836151 348.488312,489.952759 
	C350.884857,490.594482 352.171326,489.756470 353.400116,488.972168 
	C357.735931,486.204926 362.035522,485.409302 367.066681,487.585724 
	C370.346497,489.004517 374.293518,490.458405 377.733368,489.398773 
	C382.775909,487.845459 387.399323,487.765472 391.881531,490.365417 
	C393.322754,488.124084 392.599884,486.347992 392.221832,484.606537 
	C391.345062,480.567413 391.582184,477.450745 396.024902,475.092865 
	C400.614807,472.656860 403.696289,464.125397 401.440063,460.812500 
	C399.005066,457.237213 400.188293,455.116516 402.801514,452.740143 
	C403.846497,451.789886 405.249268,450.921204 405.022644,448.649506 
	C399.303162,446.766998 393.068115,447.121490 387.120300,445.868286 
	C383.155609,445.032928 380.947449,443.332245 379.294342,439.395813 
	C377.129913,434.241791 375.335663,428.633850 370.962616,424.018005 
	C367.102875,428.329163 365.623016,433.159058 363.983429,437.755798 
	C362.264191,442.575745 359.234802,445.113403 354.295990,445.816864 
	C348.713074,446.612091 343.152100,447.561737 337.010010,448.847748 
M328.065948,418.257568 
	C326.472778,419.220673 325.210571,420.524933 324.221771,422.086182 
	C321.731354,426.018494 321.620697,430.046722 324.628571,433.619751 
	C327.764709,437.345093 331.838013,437.228394 335.961090,435.272400 
	C340.647217,433.049316 343.105621,427.497314 341.579468,422.751770 
	C340.021942,417.908813 335.660156,416.257050 328.065948,418.257568 
M409.054596,486.643951 
	C405.665070,486.398132 404.073761,488.123016 404.117004,491.371063 
	C404.147247,493.644348 405.392059,495.248505 407.675659,495.501465 
	C410.275085,495.789429 411.702148,494.039368 412.280151,491.793274 
	C412.857819,489.548401 411.538727,488.012726 409.054596,486.643951 
z"/>
<path fill="#000000" opacity="1.000000" stroke="none" 
	d="
M608.143860,508.874939 
	C606.866638,508.038330 605.948853,507.271637 604.899780,506.791962 
	C600.548767,504.802460 598.539917,502.615662 599.348511,496.772400 
	C600.227417,490.421356 597.662598,483.670013 597.265686,477.053192 
	C595.309570,444.441620 603.308533,415.584778 629.760742,394.116364 
	C668.265564,362.866089 740.476501,372.303223 764.373413,429.006714 
	C768.321838,438.375641 771.655945,447.977386 773.366394,458.029755 
	C774.028015,461.918304 776.344299,464.555176 779.456055,467.529633 
	C769.616455,475.083801 765.267273,486.415833 758.151245,495.746765 
	C751.301392,504.728729 742.353516,510.892151 732.273315,515.639587 
	C730.610229,516.422852 727.844299,516.739380 730.602356,520.073425 
	C712.472656,520.484375 695.166870,522.690002 677.835327,524.517090 
	C660.529419,526.341431 643.321655,528.978394 625.156677,533.170044 
	C628.603943,528.770935 632.886292,528.146362 637.306030,525.495422 
	C626.478638,521.155823 617.290833,515.394714 608.143860,508.874939 
M710.951843,500.454163 
	C704.245056,507.652161 695.501709,511.820007 686.896851,516.315674 
	C698.564026,516.649902 709.994873,515.013428 721.480042,515.742920 
	C722.258667,515.792419 723.141174,515.503784 723.851746,515.134583 
	C736.317200,508.658173 747.284912,500.465607 754.373779,487.966400 
	C756.832947,483.630463 759.688782,479.280334 759.695923,474.126190 
	C759.737244,444.401978 749.553101,419.776855 723.588379,403.311829 
	C714.733093,397.696442 704.654114,394.271149 698.591125,394.385620 
	C703.543579,397.182007 708.605469,399.820587 712.676758,403.971985 
	C711.109009,403.853607 709.774597,403.315979 708.441223,402.775635 
	C706.625610,402.039856 704.847412,401.775452 703.461243,403.547333 
	C701.907532,405.533386 702.695740,407.268982 704.184692,408.885559 
	C705.423889,410.230988 706.578125,411.662018 707.886780,412.935059 
	C734.070435,438.406189 735.473633,472.551697 710.951843,500.454163 
M698.210144,476.718628 
	C701.418884,469.539581 704.623596,462.370911 702.059937,454.185181 
	C701.831116,453.454498 702.006714,452.503326 702.249084,451.734863 
	C703.394104,448.104950 701.391174,447.385406 698.404114,447.269409 
	C695.810059,447.168640 693.069824,447.470062 690.545593,445.306610 
	C692.850647,443.158356 691.886108,441.259277 690.004761,439.503845 
	C686.768372,436.484070 683.767883,432.069122 678.737610,433.692261 
	C675.039001,434.885712 673.987122,433.206512 672.544373,430.843658 
	C671.035278,428.372040 670.702820,425.123352 667.690979,423.317505 
	C664.749939,425.677094 663.412537,429.097565 662.639343,432.264282 
	C659.711853,444.254089 650.655273,446.560364 640.348755,447.258362 
	C639.187744,447.337006 638.016663,447.297699 636.860901,447.416565 
	C635.375732,447.569305 633.852722,447.734772 632.901611,449.793762 
	C635.488464,452.551117 638.195557,455.414856 640.876099,458.303253 
	C642.173584,459.701324 643.409546,461.376434 642.052124,463.175903 
	C639.382202,466.715332 641.125610,469.324188 643.396240,472.012573 
	C646.317505,475.471313 647.990784,479.184174 646.563599,483.938385 
	C645.997009,485.825806 645.423096,488.143494 647.423218,490.430206 
	C649.453735,489.482635 651.594910,488.647980 653.572327,487.524933 
	C657.215149,485.455994 660.476318,484.822815 663.941040,488.162140 
	C666.530945,490.658417 670.417236,490.919189 673.403992,489.779266 
	C678.845093,487.702728 683.919189,487.362457 689.507385,490.761322 
	C689.444092,485.961517 690.901001,483.125458 695.094727,481.927246 
	C696.834106,481.430298 697.334167,479.169495 698.210144,476.718628 
M613.764160,475.183319 
	C612.756470,472.311646 611.500122,472.684479 610.190735,474.949219 
	C608.516968,477.844177 608.266907,481.189514 607.813660,484.166168 
	C606.555298,484.536835 606.080261,482.928772 605.691467,483.379639 
	C602.980042,497.644623 608.958618,507.057220 620.552490,513.561707 
	C622.437683,514.619324 624.456360,515.528015 626.127930,516.862854 
	C634.676147,523.688782 643.844788,526.114685 654.236938,521.376343 
	C656.614502,520.292236 659.798950,521.049866 662.089966,517.952087 
	C649.805176,514.442932 638.141724,510.740570 630.007507,499.915405 
	C634.817932,498.108887 637.463928,495.114288 637.792664,490.567352 
	C637.979492,487.982056 635.529419,487.483734 633.782654,486.736359 
	C627.962036,484.245880 626.135315,489.087585 623.901733,493.510406 
	C619.000549,487.718384 616.429382,481.807831 613.764160,475.183319 
M646.927185,424.792114 
	C645.441101,419.297058 642.620850,417.014069 637.496277,417.157806 
	C632.709717,417.291992 628.446960,421.082092 627.478027,426.065063 
	C626.617249,430.491791 628.833862,434.542908 632.975891,436.113159 
	C637.066101,437.663788 642.477600,435.714355 645.260071,431.734894 
	C646.559753,429.876129 646.991577,427.803101 646.927185,424.792114 
M712.442566,489.999939 
	C711.313782,487.531342 709.645996,485.666382 706.711609,486.671204 
	C704.520508,487.421539 703.174805,489.308746 703.718933,491.720978 
	C704.214294,493.916809 705.567322,495.746887 708.161743,495.574158 
	C711.061218,495.381134 712.620911,493.705933 712.442566,489.999939 
z"/>
<path fill="#000000" opacity="1.000000" stroke="none" 
	d="
M201.160965,795.140808 
	C200.165817,791.395935 196.965179,788.406372 197.071136,784.219299 
	C199.005798,783.789429 199.851013,785.036072 200.724030,785.906128 
	C219.512070,804.630920 242.663254,816.261780 266.546295,826.833984 
	C301.687134,842.389587 338.586639,851.513855 376.343353,857.712585 
	C405.909302,862.566589 435.779480,865.169067 465.368805,869.775269 
	C484.320679,872.725647 503.201630,875.483887 522.475525,874.719482 
	C539.341431,874.050659 555.817505,870.579468 572.476929,868.441895 
	C594.593201,865.604126 616.723206,862.842834 638.788513,859.643372 
	C694.430237,851.575317 747.859253,836.555054 797.035217,808.441040 
	C807.510498,802.452209 817.051636,795.248047 825.666138,786.798889 
	C826.801392,785.685547 827.760864,784.165771 830.068848,784.161133 
	C830.286377,788.620300 827.320068,791.846252 825.663086,796.171814 
	C819.364746,804.700195 813.164551,812.445007 804.801941,818.111511 
	C784.037903,830.262817 762.084473,839.772644 739.392578,847.666138 
	C705.968811,859.292786 671.648621,867.098816 636.669678,872.272705 
	C608.371460,876.458374 579.856262,878.801208 551.540466,882.939758 
	C523.742249,887.002747 495.837189,885.949280 467.977692,881.739685 
	C447.443420,878.636902 426.706329,876.901550 406.096039,874.271606 
	C347.672516,866.816406 290.792938,853.839478 237.932785,826.678162 
	C232.582794,823.929138 227.582718,820.646851 222.081970,816.901245 
	C213.392288,810.691528 206.838882,803.332336 201.160965,795.140808 
z"/>
<path fill="#000000" opacity="1.000000" stroke="none" 
	d="
M200.856323,794.959595 
	C206.838882,803.332336 213.392288,810.691528 221.763336,816.780151 
	C222.584427,818.147400 223.833237,818.994202 223.521469,821.334595 
	C199.649094,815.622009 188.327759,796.543091 175.673492,777.610413 
	C175.259506,782.841919 177.147934,787.452087 174.919678,792.400024 
	C163.991409,785.960083 160.626450,774.586304 154.757446,764.428345 
	C153.382751,769.760437 156.404831,774.603577 155.419647,779.597046 
	C152.919205,779.405701 152.274841,777.478943 151.279938,776.070923 
	C144.817032,766.924561 139.189041,757.310669 135.322449,746.752075 
	C134.431351,744.318787 133.353882,742.416077 130.480026,741.671570 
	C128.834976,741.245483 127.318527,739.815735 126.045746,738.537537 
	C111.960838,724.392456 96.563599,699.985535 95.390625,675.168640 
	C93.057281,675.695740 91.759926,674.407043 90.719505,672.392151 
	C85.386742,662.064636 83.243080,651.095581 83.999611,639.553040 
	C84.280273,635.270813 84.873886,631.009155 85.384308,626.174194 
	C83.126396,629.077881 84.260796,633.075623 81.190529,635.124939 
	C74.305481,617.809937 86.607971,573.295288 103.480736,567.299805 
	C96.451180,584.935547 88.954895,601.562866 86.545853,619.773682 
	C87.818001,615.276794 89.498383,610.945496 91.962631,606.997375 
	C94.466919,602.985107 96.440414,598.457153 101.899200,596.436401 
	C95.997765,618.161194 89.877922,639.795410 92.800964,662.700684 
	C93.508774,659.155579 94.041237,655.563538 94.972878,652.078247 
	C95.936302,648.474060 95.505051,644.442932 97.880447,641.253662 
	C100.643448,641.316040 101.318161,643.403687 102.196960,645.093811 
	C105.179520,650.829651 106.307777,657.007812 106.295532,663.429688 
	C106.250679,686.946411 114.537109,707.667725 127.585152,726.783447 
	C127.732773,726.999695 128.118790,727.053101 128.646729,727.301819 
	C129.078903,722.101257 127.082428,716.982605 128.708130,711.945129 
	C129.787781,708.599792 129.636276,703.231873 133.854950,703.387695 
	C137.502106,703.522278 136.864380,708.760071 137.172928,711.821838 
	C138.672318,726.700500 143.965912,740.441772 149.172379,754.915466 
	C150.437531,748.125122 148.686523,741.731262 151.270920,735.690063 
	C156.611069,749.137878 160.981689,762.835876 168.346924,776.639893 
	C169.478577,768.179260 167.456528,760.612000 170.520248,753.312195 
	C173.702469,754.248840 174.452362,757.029053 175.788193,759.159790 
	C183.478653,771.427063 190.727448,783.995850 200.856323,794.959595 
z"/>
<path fill="#000000" opacity="1.000000" stroke="none" 
	d="
M487.570312,513.830383 
	C490.140717,521.987732 490.598145,522.233154 498.297668,519.372498 
	C501.105988,518.329102 503.612762,518.718262 505.621704,520.886963 
	C508.199066,523.669250 508.405762,527.003418 506.542358,530.125793 
	C504.661316,533.277649 504.321045,535.812927 507.339905,538.466736 
	C511.192841,541.853699 513.453674,541.542114 515.762878,536.952209 
	C516.195435,536.092529 516.633057,535.235352 517.082947,534.348267 
	C517.582336,534.633118 517.986877,534.719971 518.076599,534.936951 
	C519.132080,537.489563 519.388000,540.964600 522.859924,541.275085 
	C525.979736,541.554077 527.670715,538.667419 529.640259,536.700500 
	C531.430298,534.912903 531.410095,533.033203 530.048828,530.854248 
	C528.016357,527.601013 526.782471,524.091003 529.825134,520.742249 
	C532.739746,517.534363 536.067627,518.500854 539.422729,520.119141 
	C543.746704,522.204773 545.923096,518.314270 548.302979,516.269165 
	C550.721191,514.191162 548.490662,511.765839 547.013000,509.731873 
	C544.285522,505.977539 539.608643,504.901184 535.902954,501.917999 
	C543.389648,501.452637 552.996643,508.824738 554.167908,515.565857 
	C555.050659,520.645996 550.071411,526.644653 543.469604,527.213928 
	C538.781433,527.618225 536.732483,528.967651 535.546997,533.857849 
	C534.324463,538.900757 529.745789,542.337463 525.352478,545.099792 
	C521.707886,547.391418 520.663879,550.292419 520.127808,554.486145 
	C518.815369,564.755432 522.556824,572.294617 529.900818,579.198059 
	C541.857666,590.437805 553.989441,601.329346 569.280396,607.834412 
	C580.191223,612.476196 591.363220,614.199890 602.599365,608.611572 
	C605.911804,606.964111 608.909302,604.849121 611.346252,602.057129 
	C613.175171,599.961731 615.262573,598.831482 617.939575,600.047607 
	C620.884033,601.385132 622.731140,603.862671 622.905945,607.036621 
	C623.068481,609.987427 621.078125,611.213623 618.263306,610.620728 
	C615.495239,610.037659 612.988464,610.262573 610.694824,612.033813 
	C595.799133,623.536621 579.856079,622.372192 564.060242,614.852295 
	C557.512146,611.735046 553.187805,611.192505 546.467773,615.545471 
	C526.859436,628.247070 499.032684,626.488831 480.612549,612.671509 
	C477.881134,610.622681 475.957947,610.548645 473.063141,612.138367 
	C464.828125,616.660706 456.114594,619.791443 446.578461,620.340820 
	C437.353271,620.872375 429.100433,618.509338 421.847076,612.782288 
	C419.370422,610.826782 416.919037,609.835571 413.570801,610.791443 
	C410.036407,611.800293 408.131073,609.664246 409.027924,606.136475 
	C409.763245,603.244019 411.508789,601.047119 414.398743,599.996765 
	C417.290436,598.945740 418.977753,600.728760 420.799194,602.624146 
	C429.059875,611.220215 439.301270,613.401733 450.621155,611.155762 
	C467.063385,607.893494 480.091675,598.306641 492.408081,587.697327 
	C497.947510,582.925659 502.907715,577.480957 508.121552,572.332275 
	C511.362305,569.132019 512.494019,565.301880 512.912415,560.705139 
	C513.660767,552.483459 512.181946,545.763489 504.931946,540.783569 
	C501.951965,538.736633 499.748810,535.598694 499.189148,531.707458 
	C498.850677,529.354248 497.310883,528.545288 495.079773,528.110291 
	C488.817810,526.889099 482.199402,524.761963 481.303314,517.728516 
	C480.386658,510.533875 486.529449,506.679077 492.088654,503.506317 
	C495.574707,501.516785 499.314453,499.621460 504.794647,500.364136 
	C497.917755,504.422028 489.440338,504.853088 487.570312,513.830383 
M545.045593,603.993530 
	C539.131592,598.941101 533.979553,592.271790 526.081482,590.669250 
	C511.261749,587.662231 498.086578,591.370911 487.462769,602.707214 
	C485.221130,605.099182 485.225281,606.842407 487.920135,608.754883 
	C493.077545,612.415100 498.950958,614.239990 505.055664,615.151550 
	C517.439697,617.000671 529.656555,616.631287 540.968262,610.426880 
	C543.135864,609.237915 546.578003,608.384094 545.045593,603.993530 
z"/>
<path fill="#000000" opacity="1.000000" stroke="none" 
	d="
M804.662048,818.398560 
	C813.164551,812.445007 819.364746,804.700195 825.548828,796.540283 
	C830.993713,791.793152 834.368591,785.779541 838.269409,780.208069 
	C843.615906,772.571533 848.642456,764.711426 853.846558,756.974426 
	C854.737183,755.650269 855.266724,753.884094 857.894653,753.510254 
	C860.889709,760.801575 858.441650,768.664062 859.783997,776.991150 
	C867.605225,763.538452 871.240967,749.167236 877.290771,734.858765 
	C880.608826,741.334229 877.995300,747.475464 879.631042,753.804138 
	C887.545593,737.296448 891.084534,720.196167 894.752808,702.891235 
	C902.727966,709.248047 901.031311,717.931885 901.233459,727.555664 
	C910.003479,714.019470 917.163391,701.348999 920.739868,686.799133 
	C923.423523,675.881531 922.884644,664.642151 924.772156,653.682922 
	C925.623718,648.738770 926.781128,643.666504 932.035034,640.001221 
	C935.511719,647.306030 934.140869,655.029358 937.707825,663.021057 
	C937.707825,656.296997 937.951294,650.864868 937.640808,645.464478 
	C937.316772,639.829529 936.447327,634.226501 935.837952,628.607178 
	C935.243469,623.125916 933.889893,617.800293 932.402283,612.519165 
	C930.890381,607.151978 929.134583,601.853394 927.355652,596.104675 
	C930.563660,596.007202 931.603027,597.877380 932.837891,599.248169 
	C940.558411,607.818176 943.136902,618.473083 944.720947,629.441528 
	C946.849182,644.177612 946.347595,658.644653 939.513550,672.323242 
	C938.448608,674.454712 937.534424,676.697571 934.548218,674.456848 
	C932.779175,700.838196 919.818787,721.289795 902.304382,739.473267 
	C894.137024,741.752075 892.993713,749.449158 889.922791,755.618713 
	C885.553589,764.396240 880.346558,772.602600 873.559998,781.201477 
	C872.052124,775.401245 874.694275,770.742554 873.388489,765.410828 
	C868.330261,775.852783 863.389526,785.835327 853.691895,793.206665 
	C851.729065,787.563965 853.425537,782.575378 852.467407,776.707031 
	C846.986877,785.391907 841.985718,793.185120 836.002991,800.269592 
	C828.477844,809.180664 820.037537,816.812256 808.532288,820.223145 
	C805.634888,821.082153 805.622314,821.039673 804.662048,818.398560 
z"/>
<path fill="#000000" opacity="1.000000" stroke="none" 
	d="
M279.508911,229.559860 
	C276.844330,228.466904 274.506042,227.583130 272.232697,226.555588 
	C269.753937,225.435211 268.412048,223.740433 270.235962,221.061752 
	C271.577301,219.091782 270.798859,217.923111 269.259949,216.417358 
	C264.272827,211.537704 258.164673,209.154465 251.482239,208.102661 
	C246.724060,207.353729 243.385727,205.254364 240.812286,200.946930 
	C236.100677,193.060593 227.682526,190.325470 219.497894,188.400299 
	C215.043518,187.352570 210.477356,186.367432 207.034088,183.840561 
	C199.315918,178.176559 190.238373,176.873367 181.510361,174.386871 
	C178.517426,173.534256 175.686996,172.573410 173.275803,170.460266 
	C204.352753,173.237503 232.904938,183.646820 259.553131,199.402344 
	C279.215851,211.027740 297.401215,224.467834 308.912323,245.160156 
	C298.751831,240.708908 290.420837,233.119797 279.508911,229.559860 
z"/>
<path fill="#000000" opacity="1.000000" stroke="none" 
	d="
M766.401306,207.343323 
	C796.079346,187.482056 849.000732,167.765182 865.803284,170.970123 
	C848.198547,176.234238 830.614075,181.562454 813.962463,189.392029 
	C797.086548,197.327133 780.963074,206.463882 766.972961,218.462540 
	C767.511963,221.027847 770.034851,220.911789 770.512573,224.034058 
	C756.890747,230.294220 742.592468,236.346207 730.092529,246.904892 
	C729.118469,242.866226 730.927490,241.001175 732.279236,239.088898 
	C741.364563,226.236588 753.437134,216.570602 766.401306,207.343323 
z"/>
<path fill="#000000" opacity="1.000000" stroke="none" 
	d="
M927.923218,568.001465 
	C932.983704,569.192139 935.557861,573.298889 937.879517,577.136597 
	C948.358948,594.459412 953.055359,613.167358 950.202881,633.463501 
	C950.112366,634.107361 950.003174,634.791138 948.997437,635.026123 
	C947.056519,634.282532 947.053345,632.245667 946.639099,630.603699 
	C944.605896,622.542969 942.735352,614.441345 940.723022,606.375244 
	C938.059204,595.698242 934.563354,585.304382 930.037292,575.258545 
	C929.027588,573.017517 927.656372,570.848511 927.923218,568.001465 
z"/>
<path fill="#000000" opacity="1.000000" stroke="none" 
	d="
M788.120056,240.885925 
	C791.001099,241.028458 793.535034,240.315857 796.182861,241.861206 
	C794.570984,245.616547 792.902100,249.012314 788.081543,249.229691 
	C774.302490,249.851013 760.671570,251.658463 747.157837,254.396606 
	C746.552612,254.519241 745.900818,254.412323 745.127502,253.860672 
	C757.960449,245.187958 772.678040,242.612885 788.120056,240.885925 
z"/>
<path fill="#000000" opacity="1.000000" stroke="none" 
	d="
M863.711792,328.764771 
	C866.389709,322.201569 868.938904,315.996857 871.507935,309.743896 
	C872.982056,310.522919 872.855652,311.193207 872.662537,311.808685 
	C867.036560,329.740906 861.457947,347.696228 852.982300,364.559357 
	C850.212891,370.069397 849.556091,370.106232 845.367737,365.834778 
	C843.505615,363.935822 841.644470,362.035522 839.817749,360.102905 
	C839.635986,359.910553 839.697449,359.488190 839.631470,359.083221 
	C839.833313,358.907104 840.091736,358.502808 840.296997,358.528198 
	C848.518799,359.545349 848.621887,359.602844 852.466431,352.006989 
	C856.295532,344.441650 859.887207,336.756104 863.711792,328.764771 
z"/>
<path fill="#000000" opacity="1.000000" stroke="none" 
	d="
M195.565399,358.815979 
	C196.864380,358.685791 197.792267,357.948639 199.720062,359.191833 
	C196.372864,362.444336 193.389557,365.871857 189.853439,368.576691 
	C187.804428,370.144043 186.742615,367.555664 185.916779,366.026001 
	C181.631851,358.089294 178.565613,349.626770 175.495239,341.181641 
	C172.367905,332.579926 169.451035,323.901520 166.466644,315.248169 
	C165.990356,313.867126 165.241837,312.473267 166.220398,310.705933 
	C168.350021,311.659607 168.524048,313.832062 169.171280,315.516724 
	C174.432358,329.210327 180.565018,342.498138 187.285782,355.532471 
	C189.104736,359.060150 191.327835,360.719086 195.565399,358.815979 
z"/>
<path fill="#000000" opacity="1.000000" stroke="none" 
	d="
M268.521118,237.423492 
	C260.921539,236.845505 253.961990,235.851898 248.141190,230.923737 
	C245.279663,228.501022 241.709106,227.841827 237.888092,227.791214 
	C232.525101,227.720215 227.279297,226.639725 221.270828,224.745117 
	C230.729431,220.635269 270.540131,230.798218 278.177338,238.666443 
	C274.802338,239.595840 271.946411,237.873672 268.521118,237.423492 
z"/>
<path fill="#000000" opacity="1.000000" stroke="none" 
	d="
M280.967377,246.829590 
	C286.241211,249.153442 291.145905,251.348007 296.143280,253.584015 
	C294.967499,255.456055 293.925232,255.094589 292.996735,254.921844 
	C284.980072,253.430527 276.989899,251.783997 268.948212,250.445633 
	C264.903259,249.772461 262.882111,247.036621 260.049103,243.262253 
	C267.879669,242.391342 274.201080,244.814545 280.967377,246.829590 
z"/>
<path fill="#000000" opacity="1.000000" stroke="none" 
	d="
M782.145996,258.778656 
	C783.614990,258.739471 784.611267,258.709351 785.607605,258.703979 
	C792.893005,258.664856 792.893005,258.666412 794.505920,267.510193 
	C784.430481,265.888855 774.747559,264.330688 765.064636,262.772522 
	C770.287537,259.128876 776.178650,259.952759 782.145996,258.778656 
z"/>
<path fill="#000000" opacity="1.000000" stroke="none" 
	d="
M770.419373,233.376038 
	C778.285828,230.148804 785.648560,226.489609 794.496338,226.254791 
	C791.050903,233.533142 773.844971,239.428741 762.123779,237.705780 
	C764.434753,235.097321 767.521240,234.773392 770.419373,233.376038 
z"/>
<path fill="#000000" opacity="1.000000" stroke="none" 
	d="
M790.856628,287.320404 
	C787.063965,286.233521 783.385315,286.103851 780.421936,283.561188 
	C786.852417,282.976196 793.309326,281.884979 799.874695,285.534668 
	C796.992554,289.314392 794.052368,287.893829 790.856628,287.320404 
z"/>
<path fill="#000000" opacity="1.000000" stroke="none" 
	d="
M261.178558,220.441727 
	C262.181671,220.956116 262.879852,221.333069 263.759918,221.808197 
	C259.987762,223.065109 257.059326,222.469360 253.150742,219.803986 
	C255.650879,217.518219 255.650879,217.518219 261.178558,220.441727 
z"/>
</svg>